<svg width="48" height="48" viewBox="0 0 48 48" fill="none" xmlns="http://www.w3.org/2000/svg">
<rect width="48" height="48" rx="24" fill="url(#paint0_linear_28_131)" fill-opacity="0.05"/>
<rect x="6" y="6" width="36" height="36" rx="18" fill="url(#paint1_linear_28_131)" fill-opacity="0.1"/>
<rect x="6.375" y="6.375" width="35.25" height="35.25" rx="17.625" stroke="url(#paint2_linear_28_131)" stroke-opacity="0.2" stroke-width="0.75"/>
<path fill-rule="evenodd" clip-rule="evenodd" d="M24 15C23.7654 15 23.5336 15.0504 23.3203 15.1478C23.1069 15.2451 22.917 15.3873 22.7633 15.5645C22.6097 15.7417 22.496 15.9499 22.4298 16.1749C22.3637 16.3999 22.3467 16.6366 22.38 16.8687C21.1939 17.2185 20.1529 17.9427 19.4126 18.9332C18.6723 19.9236 18.2724 21.1271 18.2727 22.3636V28.9091H17.4545C17.2375 28.9091 17.0294 28.9953 16.876 29.1487C16.7226 29.3022 16.6364 29.5103 16.6364 29.7273C16.6364 29.9443 16.7226 30.1524 16.876 30.3058C17.0294 30.4593 17.2375 30.5455 17.4545 30.5455H30.5454C30.7624 30.5455 30.9705 30.4593 31.124 30.3058C31.2774 30.1524 31.3636 29.9443 31.3636 29.7273C31.3636 29.5103 31.2774 29.3022 31.124 29.1487C30.9705 28.9953 30.7624 28.9091 30.5454 28.9091H29.7273V22.3636C29.7276 21.1271 29.3277 19.9236 28.5874 18.9332C27.847 17.9427 26.806 17.2185 25.62 16.8687C25.6309 16.7924 25.6364 16.7149 25.6364 16.6364C25.6364 16.2024 25.464 15.7862 25.1571 15.4793C24.8502 15.1724 24.434 15 24 15ZM25.6364 32.1818C25.6364 32.3988 25.5502 32.6069 25.3967 32.7604C25.2433 32.9138 25.0352 33 24.8182 33H23.1818C22.9648 33 22.7567 32.9138 22.6033 32.7604C22.4498 32.6069 22.3636 32.3988 22.3636 32.1818C22.3636 31.9648 22.4498 31.7567 22.6033 31.6033C22.7567 31.4498 22.9648 31.3636 23.1818 31.3636H24.8182C25.0352 31.3636 25.2433 31.4498 25.3967 31.6033C25.5502 31.7567 25.6364 31.9648 25.6364 32.1818Z" fill="#CAFF33"/>
<defs>
<linearGradient id="paint0_linear_28_131" x1="24" y1="0" x2="24" y2="48" gradientUnits="userSpaceOnUse">
<stop stop-color="#CAFF33"/>
<stop offset="1" stop-color="#CAFF33" stop-opacity="0"/>
</linearGradient>
<linearGradient id="paint1_linear_28_131" x1="24" y1="-17.8378" x2="24" y2="98.9189" gradientUnits="userSpaceOnUse">
<stop stop-color="#CAFF33"/>
<stop offset="0.467671" stop-color="#CAFF33" stop-opacity="0"/>
</linearGradient>
<linearGradient id="paint2_linear_28_131" x1="24" y1="-56.5135" x2="24" y2="74.5946" gradientUnits="userSpaceOnUse">
<stop stop-color="#CAFF33"/>
<stop offset="0.716291" stop-color="#CAFF33" stop-opacity="0"/>
</linearGradient>
</defs>
</svg>
