<svg width="48" height="48" viewBox="0 0 48 48" fill="none" xmlns="http://www.w3.org/2000/svg">
<rect width="48" height="48" rx="24" fill="url(#paint0_linear_28_102)" fill-opacity="0.05"/>
<rect x="6" y="6" width="36" height="36" rx="18" fill="url(#paint1_linear_28_102)" fill-opacity="0.1"/>
<rect x="6.375" y="6.375" width="35.25" height="35.25" rx="17.625" stroke="url(#paint2_linear_28_102)" stroke-opacity="0.2" stroke-width="0.75"/>
<path d="M27.368 18.3047C27.368 19.2363 27.048 20.0168 26.4117 20.6566C25.7754 21.293 24.9914 21.6129 24.0598 21.6129C23.1316 21.6129 22.3476 21.293 21.7113 20.6566C21.075 20.0203 20.7551 19.2363 20.7551 18.3047C20.7551 17.373 21.075 16.5926 21.7113 15.9527C22.3476 15.3129 23.1351 15 24.0633 15C24.9949 15 25.7754 15.3199 26.4152 15.9563C27.0551 16.5926 27.3715 17.3766 27.368 18.3047Z" fill="#CAFF33"/>
<path d="M31.7274 21.7992V29.407C31.7274 29.8254 31.4039 30.1699 30.9891 30.1981C29.8465 30.2789 28.7215 30.5391 27.6598 30.968C26.5207 31.425 25.4555 32.0508 24.4992 32.8242C24.2074 33.0563 23.7961 33.0563 23.5043 32.8242C22.5481 32.0508 21.4828 31.425 20.3438 30.968C19.282 30.5391 18.157 30.2789 17.0145 30.1981C16.5996 30.1699 16.2762 29.8219 16.2762 29.407V21.7992C16.2797 21.3598 16.6348 21.0047 17.0742 21.0047C17.1024 21.0047 17.127 21.0047 17.1551 21.0082C18.2027 21.1137 19.2434 21.4055 20.2805 21.8871C21.6024 22.5024 22.8469 23.3602 24.0035 24.4641C25.1637 23.3637 26.4047 22.5024 27.7266 21.8871C28.7602 21.4055 29.8043 21.1137 30.852 21.0082C31.2879 20.9625 31.6817 21.2789 31.7274 21.7184C31.7238 21.7465 31.7274 21.7746 31.7274 21.7992Z" fill="#CAFF33"/>
<defs>
<linearGradient id="paint0_linear_28_102" x1="24" y1="0" x2="24" y2="48" gradientUnits="userSpaceOnUse">
<stop stop-color="#CAFF33"/>
<stop offset="1" stop-color="#CAFF33" stop-opacity="0"/>
</linearGradient>
<linearGradient id="paint1_linear_28_102" x1="24" y1="-17.8378" x2="24" y2="98.9189" gradientUnits="userSpaceOnUse">
<stop stop-color="#CAFF33"/>
<stop offset="0.467671" stop-color="#CAFF33" stop-opacity="0"/>
</linearGradient>
<linearGradient id="paint2_linear_28_102" x1="24" y1="-56.5135" x2="24" y2="74.5946" gradientUnits="userSpaceOnUse">
<stop stop-color="#CAFF33"/>
<stop offset="0.716291" stop-color="#CAFF33" stop-opacity="0"/>
</linearGradient>
</defs>
</svg>
