<svg width="48" height="48" viewBox="0 0 48 48" fill="none" xmlns="http://www.w3.org/2000/svg">
<rect width="48" height="48" rx="24" fill="url(#paint0_linear_28_89)" fill-opacity="0.05"/>
<rect x="6" y="6" width="36" height="36" rx="18" fill="url(#paint1_linear_28_89)" fill-opacity="0.1"/>
<rect x="6.375" y="6.375" width="35.25" height="35.25" rx="17.625" stroke="url(#paint2_linear_28_89)" stroke-opacity="0.2" stroke-width="0.75"/>
<path d="M23.1507 28.2526L21.5588 29.8388C20.9007 30.4969 19.8263 30.4969 19.1682 29.8388L17.5763 28.2469C16.9237 27.5945 16.9237 26.5201 17.5763 25.862L19.1682 24.2701L23.1507 28.2526ZM30.7049 23.8707L23.5443 16.7156C23.4207 16.5862 23.2405 16.5244 23.0661 16.5525C22.8862 16.5807 22.7343 16.6876 22.65 16.845L19.4269 22.9369L24.4949 28.0052L30.5698 24.765C30.7274 24.6865 30.8346 24.5288 30.8626 24.3544C30.8906 24.1745 30.8285 24.0001 30.7049 23.8707ZM18.375 30.632L16.783 29.0401C16.5581 28.8151 16.3837 28.5677 16.2543 28.2977C15.9731 29.0851 16.153 30.0019 16.783 30.632C17.2107 31.0594 17.7732 31.2958 18.375 31.2958C18.6337 31.2958 18.8869 31.2508 19.1231 31.1665C18.8474 31.0368 18.5944 30.8569 18.375 30.632ZM24.9393 30.0357L23.9494 29.0458L22.3517 30.6375C22.2169 30.7726 22.0705 30.8907 21.9131 30.9921L22.948 32.027C23.2125 32.2915 23.5668 32.4376 23.9437 32.4376C24.3205 32.4376 24.6751 32.2915 24.9393 32.027C25.4848 31.4757 25.4848 30.5869 24.9393 30.0357ZM26.8125 17.2504V16.1254C26.8125 15.8147 26.5609 15.5629 26.25 15.5629C25.9391 15.5629 25.6875 15.8147 25.6875 16.1254V17.2504C25.6875 17.561 25.9391 17.8129 26.25 17.8129C26.5609 17.8129 26.8125 17.561 26.8125 17.2504ZM31.875 21.1876C31.875 20.877 31.6234 20.6251 31.3125 20.6251H30.1875C29.8766 20.6251 29.625 20.877 29.625 21.1876C29.625 21.4982 29.8766 21.7501 30.1875 21.7501H31.3125C31.6234 21.7501 31.875 21.4982 31.875 21.1876ZM28.8977 19.3353L30.0227 18.2103C30.2424 17.9906 30.2424 17.6346 30.0227 17.4149C29.8029 17.1952 29.447 17.1952 29.2273 17.4149L28.1023 18.5399C27.8825 18.7596 27.8825 19.1156 28.1023 19.3353C28.2121 19.4452 28.356 19.5001 28.5 19.5001C28.6439 19.5001 28.7878 19.4452 28.8977 19.3353Z" fill="#CAFF33"/>
<defs>
<linearGradient id="paint0_linear_28_89" x1="24" y1="0" x2="24" y2="48" gradientUnits="userSpaceOnUse">
<stop stop-color="#CAFF33"/>
<stop offset="1" stop-color="#CAFF33" stop-opacity="0"/>
</linearGradient>
<linearGradient id="paint1_linear_28_89" x1="24" y1="-17.8378" x2="24" y2="98.9189" gradientUnits="userSpaceOnUse">
<stop stop-color="#CAFF33"/>
<stop offset="0.467671" stop-color="#CAFF33" stop-opacity="0"/>
</linearGradient>
<linearGradient id="paint2_linear_28_89" x1="24" y1="-56.5135" x2="24" y2="74.5946" gradientUnits="userSpaceOnUse">
<stop stop-color="#CAFF33"/>
<stop offset="0.716291" stop-color="#CAFF33" stop-opacity="0"/>
</linearGradient>
</defs>
</svg>
