<svg width="19" height="21" viewBox="0 0 19 21" fill="none" xmlns="http://www.w3.org/2000/svg">
<path fill-rule="evenodd" clip-rule="evenodd" d="M7.99992 0.25C5.37657 0.25 3.24992 2.37665 3.24992 5C3.24992 7.62335 5.37657 9.75 7.99992 9.75C10.6233 9.75 12.7499 7.62335 12.7499 5C12.7499 2.37665 10.6233 0.25 7.99992 0.25ZM4.74992 5C4.74992 3.20507 6.205 1.75 7.99992 1.75C9.79485 1.75 11.2499 3.20507 11.2499 5C11.2499 6.79493 9.79485 8.25 7.99992 8.25C6.205 8.25 4.74992 6.79493 4.74992 5Z" fill="#B3B3B3"/>
<path d="M2.77829 13.8591C3.18257 13.1719 3.9203 12.75 4.71756 12.75H10.0019C10.4161 12.75 10.7519 12.4142 10.7519 12C10.7519 11.5858 10.4161 11.25 10.0019 11.25H4.71756C3.38879 11.25 2.15925 11.9532 1.48545 13.0984L0.823679 14.2233C0.301361 15.111 0.0773069 16.1478 0.291213 17.0798C0.514466 18.0525 1.20611 18.8451 2.33802 19.1375C4.07091 19.5852 6.33015 19.7823 8.51443 19.7457C8.92859 19.7388 9.25871 19.3974 9.25177 18.9833C9.24484 18.5691 8.90348 18.239 8.48932 18.2459C6.38997 18.2811 4.2745 18.0885 2.71321 17.6852C2.13764 17.5365 1.8544 17.1852 1.7532 16.7443C1.64265 16.2626 1.74458 15.6161 2.11652 14.9839L2.77829 13.8591Z" fill="#B3B3B3"/>
<path d="M14.8905 15.5919C14.5318 15.3848 14.0731 15.5077 13.866 15.8665C13.6589 16.2252 13.7818 16.6839 14.1405 16.891L14.1478 16.8951C14.5065 17.1022 14.9652 16.9793 15.1723 16.6206C15.3794 16.2619 15.2565 15.8032 14.8978 15.5961L14.8905 15.5919Z" fill="#B3B3B3"/>
<path fill-rule="evenodd" clip-rule="evenodd" d="M12.8963 12.498C13.1868 11.9216 13.7896 11.75 14.238 11.75H14.7244C15.2466 11.75 15.7744 12.006 16.0418 12.454C16.0496 12.467 16.057 12.4803 16.064 12.4938L16.3321 13.0119L16.905 12.9914C16.9139 12.991 16.9229 12.9909 16.9319 12.9909C17.4688 12.9909 17.9348 13.3234 18.2167 13.72C18.2244 13.7309 18.2318 13.742 18.239 13.7533L18.5009 14.1669C18.5072 14.1769 18.5134 14.1871 18.5192 14.1974C18.7436 14.5921 18.896 15.2161 18.5321 15.7686L18.232 16.2312L18.5487 16.7406C18.6984 16.9914 18.7417 17.2762 18.7337 17.5166C18.7255 17.7638 18.6615 18.0321 18.5234 18.278L18.3019 18.6862L18.2947 18.6991C18.073 19.089 17.5802 19.5616 16.9106 19.4904L16.3695 19.471L16.1036 19.9849C15.813 20.5614 15.2102 20.7329 14.7618 20.7329H14.2754C13.7532 20.7329 13.2254 20.4769 12.958 20.0289C12.9502 20.0159 12.9428 20.0026 12.9359 19.9891L12.6678 19.471L12.0949 19.4916C12.0859 19.4919 12.0769 19.492 12.068 19.492C11.531 19.492 11.0651 19.1595 10.7832 18.7629C10.7699 18.7441 10.7574 18.7248 10.7459 18.7049L10.4806 18.2479C10.2562 17.8532 10.1038 17.2291 10.4677 16.6767L10.7679 16.2141L10.4511 15.7047C10.1757 15.2433 10.2243 14.6538 10.4764 14.2049L10.6979 13.7968L10.7051 13.7838C10.9268 13.3939 11.4197 12.9213 12.0892 12.9925L12.6303 13.0119L12.8963 12.498ZM14.1948 13.2524L13.9141 13.795C13.6771 14.253 13.1973 14.5332 12.682 14.5148L12.0319 14.4914C12.0252 14.4998 12.0182 14.5097 12.0116 14.5209L11.7918 14.9259L11.7846 14.9388C11.7775 14.9514 11.7726 14.9635 11.7695 14.9745L11.7677 14.9814L12.0976 15.5119C12.3706 15.9509 12.3652 16.5081 12.0838 16.9418L11.7568 17.4457C11.7621 17.4616 11.7706 17.4816 11.7834 17.5043L12.0218 17.9151C12.053 17.9542 12.0826 17.978 12.1023 17.9903L12.7194 17.9682C13.2348 17.9497 13.7145 18.23 13.9515 18.6879L14.2295 19.2253C14.233 19.2265 14.2368 19.2277 14.241 19.2287C14.2517 19.2314 14.2634 19.2329 14.2754 19.2329H14.7618C14.7786 19.2329 14.793 19.232 14.805 19.2306L15.0858 18.6879C15.3227 18.23 15.8025 17.9497 16.3178 17.9682L16.9679 17.9915C16.9747 17.9831 16.9816 17.9732 16.9882 17.9621L17.2081 17.557L17.2153 17.5441C17.2188 17.5379 17.2237 17.5271 17.2278 17.5119C17.2318 17.4969 17.234 17.4815 17.2345 17.4678L16.9023 16.9334C16.6292 16.4944 16.6346 15.9372 16.916 15.5035L17.243 14.9996C17.2385 14.986 17.2316 14.9694 17.2217 14.9506L16.9849 14.5766C16.9512 14.5323 16.9187 14.5058 16.8975 14.4926L16.2804 14.5148C15.7651 14.5332 15.2853 14.253 15.0484 13.795L14.7703 13.2576C14.7669 13.2564 14.763 13.2552 14.7588 13.2542C14.7481 13.2515 14.7365 13.25 14.7244 13.25H14.238C14.2212 13.25 14.2068 13.251 14.1948 13.2524Z" fill="#B3B3B3"/>
</svg>
