<svg width="48" height="48" viewBox="0 0 48 48" fill="none" xmlns="http://www.w3.org/2000/svg">
<rect width="48" height="48" rx="24" fill="url(#paint0_linear_28_96)" fill-opacity="0.05"/>
<rect x="6" y="6" width="36" height="36" rx="18" fill="url(#paint1_linear_28_96)" fill-opacity="0.1"/>
<rect x="6.375" y="6.375" width="35.25" height="35.25" rx="17.625" stroke="url(#paint2_linear_28_96)" stroke-opacity="0.2" stroke-width="0.75"/>
<g clip-path="url(#clip0_28_96)">
<path d="M22.0628 26.3861L21.765 30.5741C22.191 30.5741 22.3755 30.3911 22.5968 30.1713L24.594 28.2626L28.7325 31.2933C29.4915 31.7163 30.0263 31.4936 30.231 30.5951L32.9475 17.8661L32.9483 17.8653C33.189 16.7433 32.5425 16.3046 31.803 16.5798L15.8355 22.6931C14.7458 23.1161 14.7623 23.7236 15.6503 23.9988L19.7325 25.2686L29.2148 19.3353C29.661 19.0398 30.0668 19.2033 29.733 19.4988L22.0628 26.3861Z" fill="#CAFF33"/>
</g>
<defs>
<linearGradient id="paint0_linear_28_96" x1="24" y1="0" x2="24" y2="48" gradientUnits="userSpaceOnUse">
<stop stop-color="#CAFF33"/>
<stop offset="1" stop-color="#CAFF33" stop-opacity="0"/>
</linearGradient>
<linearGradient id="paint1_linear_28_96" x1="24" y1="-17.8378" x2="24" y2="98.9189" gradientUnits="userSpaceOnUse">
<stop stop-color="#CAFF33"/>
<stop offset="0.467671" stop-color="#CAFF33" stop-opacity="0"/>
</linearGradient>
<linearGradient id="paint2_linear_28_96" x1="24" y1="-56.5135" x2="24" y2="74.5946" gradientUnits="userSpaceOnUse">
<stop stop-color="#CAFF33"/>
<stop offset="0.716291" stop-color="#CAFF33" stop-opacity="0"/>
</linearGradient>
<clipPath id="clip0_28_96">
<rect width="18" height="18" fill="white" transform="translate(15 15)"/>
</clipPath>
</defs>
</svg>
