<svg width="22" height="19" viewBox="0 0 22 19" fill="none" xmlns="http://www.w3.org/2000/svg">
<path fill-rule="evenodd" clip-rule="evenodd" d="M12.1419 1.72353C11.7021 0.733763 10.2973 0.733754 9.85742 1.72353L7.67451 6.63506C7.13017 7.85985 5.64245 8.3401 4.48473 7.66476L2.47276 6.49111C1.49321 5.9197 0.320296 6.84307 0.645389 7.92918L3.28091 16.7742C3.2884 16.7993 3.29708 16.8237 3.30688 16.8474C3.37211 17.0414 3.48493 17.2 3.5998 17.3203C3.77405 17.5027 3.99349 17.6426 4.21113 17.7529C4.64875 17.9746 5.23311 18.1526 5.8931 18.294C7.22534 18.5795 9.03051 18.75 11 18.75C12.9695 18.75 14.7746 18.5795 16.1069 18.294C16.7669 18.1526 17.3512 17.9746 17.7888 17.7529C18.0065 17.6426 18.2259 17.5027 18.4002 17.3203C18.5174 17.1976 18.6324 17.035 18.697 16.8356C18.7051 16.8152 18.7124 16.7942 18.7188 16.7728L21.3537 7.93002C21.6789 6.84388 20.5062 5.9197 19.5266 6.49111L17.5146 7.66476C16.3569 8.3401 14.8692 7.85985 14.3249 6.63507L12.1419 1.72353ZM17.6307 15.1717L19.7363 8.10534L18.2704 8.96043C16.3409 10.086 13.8614 9.28557 12.9541 7.24427L10.9997 2.84676L9.04523 7.24427C8.13799 9.28557 5.65846 10.086 3.72892 8.96043L2.26305 8.10533L4.36868 15.1719C4.78487 14.9847 5.30941 14.8311 5.8931 14.706C7.22534 14.4205 9.03051 14.25 11 14.25C12.9695 14.25 14.7746 14.4205 16.1069 14.706C16.6903 14.831 17.2146 14.9846 17.6307 15.1717ZM6.20739 16.8273C5.72497 16.7239 5.34749 16.6109 5.07692 16.5C5.34749 16.3891 5.72497 16.2761 6.20739 16.1727C7.40865 15.9153 9.10348 15.75 11 15.75C12.8965 15.75 14.5913 15.9153 15.7926 16.1727C16.275 16.2761 16.6525 16.3891 16.9231 16.5C16.6525 16.6109 16.275 16.7239 15.7926 16.8273C14.5913 17.0847 12.8965 17.25 11 17.25C9.10348 17.25 7.40865 17.0847 6.20739 16.8273Z" fill="#B3B3B3"/>
</svg>
