<svg width="14" height="20" viewBox="0 0 14 20" fill="none" xmlns="http://www.w3.org/2000/svg">
<path d="M5.94163 1.71367C3.92361 2.15335 2.35053 3.7348 1.91605 5.64649L1.91405 5.65531C1.39099 7.83473 2.34892 9.93484 3.92382 11.0723C3.93786 11.0824 3.95154 11.093 3.96484 11.1041C4.7474 11.7562 5.2347 12.8732 5.2347 13.8803V14.3803C5.2347 14.7945 4.89892 15.1303 4.4847 15.1303C4.07049 15.1303 3.7347 14.7945 3.7347 14.3803V13.8803C3.7347 13.2955 3.4305 12.623 3.02163 12.2709C1.01175 10.8052 -0.217575 8.11749 0.454359 5.30963C1.02111 2.82411 3.04608 0.808106 5.62538 0.24739L5.63019 0.246344C9.92225 -0.657247 13.7347 2.73072 13.7347 6.88027C13.7347 9.14224 12.6024 11.0487 11.0481 12.27C11.0391 12.2771 11.0299 12.2839 11.0206 12.2906C10.6248 12.5733 10.3615 12.9913 10.2701 13.4862C10.195 13.8935 9.80385 14.1628 9.39651 14.0876C8.98917 14.0125 8.71989 13.6213 8.79505 13.214C8.95355 12.3549 9.42005 11.5965 10.1336 11.0809C11.3726 10.102 12.2347 8.61261 12.2347 6.88027C12.2347 3.63062 9.24861 1.01905 5.94163 1.71367Z" fill="#B3B3B3"/>
<path d="M10.2478 15.6692C10.3477 16.0712 10.1028 16.478 9.70081 16.5779L5.20081 17.6964C4.79882 17.7963 4.39196 17.5514 4.29205 17.1494C4.19214 16.7475 4.43702 16.3406 4.839 16.2407L9.339 15.1222C9.74098 15.0223 10.1478 15.2672 10.2478 15.6692Z" fill="#B3B3B3"/>
<path d="M9.21178 19.0751C9.61221 18.9692 9.85091 18.5586 9.74494 18.1582C9.63897 17.7578 9.22846 17.5191 8.82803 17.625L5.82803 18.419C5.4276 18.5249 5.18889 18.9355 5.29486 19.3359C5.40083 19.7363 5.81135 19.975 6.21178 19.8691L9.21178 19.0751Z" fill="#B3B3B3"/>
<path d="M8.344 4.23107C8.40993 4.26564 8.47029 4.30038 8.52422 4.33408C8.87547 4.55362 8.98225 5.01633 8.76272 5.36758C8.54318 5.71883 8.08047 5.82561 7.72922 5.60608C7.59346 5.52123 7.34574 5.41238 7.09935 5.38265C6.86335 5.35416 6.72212 5.40409 6.6258 5.50041C6.53858 5.58763 6.51407 5.65783 6.50525 5.70968C6.49477 5.77121 6.50038 5.85024 6.53075 5.9445C6.53885 5.96966 6.56048 6.01276 6.6308 6.07499C6.70401 6.13978 6.80944 6.20694 6.95178 6.27846C6.96484 6.28409 6.97781 6.29012 6.99069 6.29656L7.71448 6.65846C8.08776 6.8451 8.67898 7.1977 8.89774 7.87677C9.07422 8.42458 9.07932 9.19776 8.43561 9.84146C8.03148 10.2456 7.54706 10.3877 7.10933 10.4043C7.0249 10.8063 6.63206 11.0662 6.22829 10.9854C5.82212 10.9042 5.5587 10.5091 5.63994 10.1029L5.65108 10.0472C5.58735 10.0136 5.52891 9.97987 5.47653 9.94713C5.12528 9.7276 5.0185 9.26489 5.23803 8.91364C5.45756 8.56238 5.92027 8.4556 6.27153 8.67514C6.40728 8.75998 6.655 8.86883 6.90139 8.89857C7.1374 8.92705 7.27862 8.87713 7.37495 8.78081C7.46217 8.69359 7.48668 8.62339 7.4955 8.57154C7.50597 8.51 7.50037 8.43098 7.47 8.33672C7.46189 8.31155 7.44027 8.26846 7.36994 8.20622C7.29674 8.14144 7.19131 8.07428 7.04897 8.00276C7.03591 7.99713 7.02294 7.99109 7.01006 7.98465L6.28626 7.62276C5.91299 7.43612 5.32177 7.08352 5.103 6.40445C4.92652 5.85663 4.92143 5.08346 5.56514 4.43975C5.96732 4.03757 6.44901 3.89488 6.88507 3.87721L6.88993 3.8529C6.97117 3.44673 7.36628 3.18332 7.77245 3.26455C8.17862 3.34579 8.44204 3.7409 8.3608 4.14707L8.344 4.23107Z" fill="#B3B3B3"/>
</svg>
