<svg width="40" height="40" viewBox="0 0 40 40" fill="none" xmlns="http://www.w3.org/2000/svg">
<path d="M38.945 18.6156C39.4983 18.5752 39.9166 18.0933 39.8485 17.5428C39.2871 13.0074 37.1869 8.78935 33.8827 5.60315C30.5786 2.41695 26.287 0.471445 21.7342 0.0753095C21.1815 0.0272206 20.7152 0.462817 20.6949 1.01722C20.6746 1.57162 21.1081 2.0346 21.6605 2.08578C25.7186 2.46183 29.5403 4.20664 32.4882 7.04932C35.4362 9.892 37.3187 13.6477 37.842 17.6894C37.9133 18.2396 38.3917 18.6561 38.945 18.6156Z" fill="#545353"/>
<path d="M1.04825 18.6047C0.499134 18.5643 0.0842018 18.0858 0.151928 17.5394C0.699013 13.1255 2.70406 9.00906 5.86371 5.85202C9.02336 2.69498 13.1415 0.693336 17.5558 0.149899C18.1023 0.0826232 18.5804 0.497951 18.6204 1.0471C18.6603 1.59625 18.2469 2.07099 17.7008 2.14128C13.7639 2.64802 10.0941 4.44374 7.27303 7.26251C4.45193 10.0813 2.65319 13.7496 2.14319 17.6861C2.07244 18.2321 1.59736 18.6451 1.04825 18.6047Z" fill="#CAFF33"/>
<path d="M20.6968 38.988C20.717 39.5395 21.1809 39.9727 21.7307 39.925C26.5334 39.508 31.0371 37.3677 34.3985 33.881C37.7599 30.3943 39.734 25.8153 39.975 21.0005C40.0026 20.4494 39.5526 20.0016 39.0008 20.0016C38.449 20.0015 38.0044 20.4493 37.9738 21.0003C37.7348 25.2974 35.9621 29.3798 32.9598 32.494C29.9575 35.6083 25.9427 37.5291 21.6573 37.9252C21.1078 37.9759 20.6765 38.4365 20.6968 38.988Z" fill="#CAFF33"/>
<path d="M19.3074 38.989C19.2873 39.54 18.8239 39.973 18.2746 39.9255C13.4714 39.5097 8.96675 37.3703 5.60434 33.884C2.24193 30.3977 0.266888 25.8186 0.0251668 21.0034C-0.00247691 20.4528 0.446968 20.0054 0.998329 20.0052C1.54969 20.005 1.99389 20.4523 2.02458 21.0028C2.26422 25.3008 4.03796 29.3837 7.0415 32.4979C10.045 35.6121 14.0611 37.5324 18.3475 37.9274C18.8966 37.978 19.3275 38.438 19.3074 38.989Z" fill="#CAFF33"/>
</svg>
